<svg width="60" height="60" viewBox="0 0 60 60" fill="none" xmlns="http://www.w3.org/2000/svg">
<circle cx="30" cy="30" r="30" fill="#F8F5FF"/>
<path d="M30 15C34.0755 15 34.584 15.015 36.183 15.09C37.7805 15.165 38.868 15.4155 39.825 15.7875C40.815 16.1685 41.649 16.6845 42.483 17.517C43.2457 18.2668 43.8359 19.1739 44.2125 20.175C44.583 21.1305 44.835 22.2195 44.91 23.817C44.9805 25.416 45 25.9245 45 30C45 34.0755 44.985 34.584 44.91 36.183C44.835 37.7805 44.583 38.868 44.2125 39.825C43.837 40.8267 43.2467 41.7339 42.483 42.483C41.7329 43.2455 40.826 43.8356 39.825 44.2125C38.8695 44.583 37.7805 44.835 36.183 44.91C34.584 44.9805 34.0755 45 30 45C25.9245 45 25.416 44.985 23.817 44.91C22.2195 44.835 21.132 44.583 20.175 44.2125C19.1735 43.8367 18.2663 43.2464 17.517 42.483C16.7541 41.7333 16.1639 40.8262 15.7875 39.825C15.4155 38.8695 15.165 37.7805 15.09 36.183C15.0195 34.584 15 34.0755 15 30C15 25.9245 15.015 25.416 15.09 23.817C15.165 22.218 15.4155 21.132 15.7875 20.175C16.1629 19.1733 16.7532 18.266 17.517 17.517C18.2665 16.7538 19.1736 16.1636 20.175 15.7875C21.132 15.4155 22.218 15.165 23.817 15.09C25.416 15.0195 25.9245 15 30 15ZM30 22.5C28.0109 22.5 26.1032 23.2902 24.6967 24.6967C23.2902 26.1032 22.5 28.0109 22.5 30C22.5 31.9891 23.2902 33.8968 24.6967 35.3033C26.1032 36.7098 28.0109 37.5 30 37.5C31.9891 37.5 33.8968 36.7098 35.3033 35.3033C36.7098 33.8968 37.5 31.9891 37.5 30C37.5 28.0109 36.7098 26.1032 35.3033 24.6967C33.8968 23.2902 31.9891 22.5 30 22.5ZM39.75 22.125C39.75 21.6277 39.5525 21.1508 39.2008 20.7992C38.8492 20.4475 38.3723 20.25 37.875 20.25C37.3777 20.25 36.9008 20.4475 36.5492 20.7992C36.1975 21.1508 36 21.6277 36 22.125C36 22.6223 36.1975 23.0992 36.5492 23.4508C36.9008 23.8025 37.3777 24 37.875 24C38.3723 24 38.8492 23.8025 39.2008 23.4508C39.5525 23.0992 39.75 22.6223 39.75 22.125ZM30 25.5C31.1935 25.5 32.3381 25.9741 33.182 26.818C34.0259 27.6619 34.5 28.8065 34.5 30C34.5 31.1935 34.0259 32.3381 33.182 33.182C32.3381 34.0259 31.1935 34.5 30 34.5C28.8065 34.5 27.6619 34.0259 26.818 33.182C25.9741 32.3381 25.5 31.1935 25.5 30C25.5 28.8065 25.9741 27.6619 26.818 26.818C27.6619 25.9741 28.8065 25.5 30 25.5Z" fill="black"/>
</svg>
